<svg width="33" height="33" viewBox="0 0 33 33" fill="none" xmlns="http://www.w3.org/2000/svg">
<rect x="0.500061" y="0.5" width="32" height="32" rx="16" stroke="black"/>
<path fill-rule="evenodd" clip-rule="evenodd" d="M24.2268 22.0943L20.3463 18.2139C21.033 17.3046 21.4402 16.1724 21.4402 14.9451C21.4402 11.9468 19.0095 9.51611 16.0112 9.51611C13.0128 9.51611 10.5821 11.9468 10.5821 14.9451C10.5821 17.9435 13.0128 20.3742 16.0112 20.3742C17.2384 20.3742 18.3706 19.9669 19.2799 19.2802L23.1604 23.1607L24.2268 22.0943ZM19.9319 14.9454C19.9319 17.1109 18.1764 18.8663 16.0109 18.8663C13.8454 18.8663 12.0899 17.1109 12.0899 14.9454C12.0899 12.7799 13.8454 11.0244 16.0109 11.0244C18.1764 11.0244 19.9319 12.7799 19.9319 14.9454Z" fill="black"/>
</svg>
